<svg xmlns="http://www.w3.org/2000/svg" width="5416" height="592" viewBox="0 0 5416 592">
  <defs>
    <style>
      .cls-1 {
        fill: #fff;
        fill-rule: evenodd;
      }
    </style>
  </defs>
  <path id="모양_1" data-name="모양 1" class="cls-1" d="M2708,588l96-28,28-92,64,24,92-112-68-72,16-228L2708,4,2480,80l16,228-68,72,92,112,64-24,28,92,96,28M2584,284c78.03-.745,82.39,119.213,0,120C2504.23,404.762,2504.23,284.762,2584,284Zm248,0c78.03-.745,82.39,119.213,0,120C2752.23,404.762,2752.23,284.762,2832,284Zm148-28,12-176H5416L5268,256H2980Zm24,52,56,64H5172l52-64H3004Zm24,116-60,68h652l56-68H3028Zm728,0-60,68h652l56-68H3756ZM2436,256L2424,80H0L148,256H2436Zm-24,52-56,64H244l-52-64H2412Zm-24,116,60,68H1796l-56-68h648Zm-728,0,60,68H1068l-56-68h648Zm1048,32,20,24,20-20-40-60-40,60,20,20,20-24"/>
</svg>
